# xmcd
#
# Track frame offsets: 
#        150
#        27582
#        62087
#        81161
#        116325
#        147903
#        167329
#        182362
#        210897
#        240045
#        253882
#        277541
#        296026
#        318961
#
# Disc length: 4585 seconds
#
# Revision: 1
# Processed by: cddbd v1.5.2PL0 Copyright (c) Steve Scherf et al.
# Submitted via: ExactAudioCopy v1.3
#
DISCID=b111e70e
DTITLE=Various Artist - Belgian New Beat: The Compilation (1988-2018)
DYEAR=2018
DGENRE=New Beat
TTITLE0=He Said - Pump
TTITLE1=Shock Taktix - This Is Not Jazz
TTITLE2=Snowy Red - Euroshima (Wardance)
TTITLE3=16 Bit - Where Are You? (Instrumental)
TTITLE4=Chayell - Don't Even Think About It
TTITLE5=Iconoclass - Tenebra
TTITLE6=Marcus 7 - Whiskey Track
TTITLE7=Shakti - The Awakening
TTITLE8=Chico Crew - Acid Pages (Church Mix)
TTITLE9=Acid Commando - Acid Generation (Bonus Beats)
TTITLE10=Spectrum - Total Recall (New Beat Mix)
TTITLE11=Casa Nostra - Insomnia (Sunday Night Mix)
TTITLE12=D.I.Y. - U Don't Have 2 Worry
TTITLE13=Edwards and Armani - Sex (Acid Sex Mix)
EXTD=YEAR: 2018
EXTT0=
EXTT1=
EXTT2=
EXTT3=
EXTT4=
EXTT5=
EXTT6=
EXTT7=
EXTT8=
EXTT9=
EXTT10=
EXTT11=
EXTT12=
EXTT13=
PLAYORDER=
